<svg width="50" height="50" viewBox="0 0 50 50" fill="none" xmlns="http://www.w3.org/2000/svg">
<g clip-path="url(#clip0_25_45)">
<path d="M50 0H0V50H50V0Z" fill="#6C72CB"/>
<g filter="url(#filter0_f_25_45)">
<path d="M21.1956 43.5954C28.0992 43.5954 33.6956 37.9128 33.6956 30.903C33.6956 23.8932 28.0992 18.2107 21.1956 18.2107C14.2921 18.2107 8.69562 23.8932 8.69562 30.903C8.69562 37.9128 14.2921 43.5954 21.1956 43.5954Z" fill="#CB69C1"/>
<path d="M37.5 25.3847C44.4036 25.3847 50 19.7021 50 12.6923C50 5.68255 44.4036 0 37.5 0C30.5964 0 25 5.68255 25 12.6923C25 19.7021 30.5964 25.3847 37.5 25.3847Z" fill="#6C72CB"/>
<path d="M25 50.2174C31.9036 50.2174 37.5 44.5349 37.5 37.5251C37.5 30.5153 31.9036 24.8328 25 24.8328C18.0964 24.8328 12.5 30.5153 12.5 37.5251C12.5 44.5349 18.0964 50.2174 25 50.2174Z" fill="#CB69C1"/>
<path d="M25 36.4213C31.9036 36.4213 37.5 30.7387 37.5 23.729C37.5 16.7192 31.9036 11.0366 25 11.0366C18.0964 11.0366 12.5 16.7192 12.5 23.729C12.5 30.7387 18.0964 36.4213 25 36.4213Z" fill="#CB69C1"/>
<path d="M21.1956 25.9367C28.0992 25.9367 33.6956 20.2541 33.6956 13.2443C33.6956 6.23456 28.0992 0.552002 21.1956 0.552002C14.2921 0.552002 8.69562 6.23456 8.69562 13.2443C8.69562 20.2541 14.2921 25.9367 21.1956 25.9367Z" fill="#6C72CB"/>
<path d="M12.5 39.7328C19.4036 39.7328 25 34.0503 25 27.0405C25 20.0307 19.4036 14.3481 12.5 14.3481C5.59644 14.3481 0 20.0307 0 27.0405C0 34.0503 5.59644 39.7328 12.5 39.7328Z" fill="#CB69C1"/>
</g>
<g clip-path="url(#clip1_25_45)">
<path d="M26.5279 18.9206C26.5279 16.9197 27.5283 16.9197 28.5287 16.9197H29.7292C29.9297 16.9224 30.1286 16.8849 30.3143 16.8095C30.5 16.734 30.6687 16.6221 30.8105 16.4803C30.9522 16.3386 31.0641 16.1699 31.1396 15.9842C31.2151 15.7985 31.2525 15.5995 31.2499 15.3991V13.5183C31.2499 13.3169 31.2099 13.1175 31.1322 12.9317C31.0546 12.7459 30.9408 12.5774 30.7974 12.4359C30.6541 12.2944 30.4841 12.1829 30.2973 12.1076C30.1105 12.0324 29.9106 11.995 29.7092 11.9977L26.868 11.9576C26.0407 11.9256 25.2164 12.0735 24.4518 12.3911C23.6872 12.7087 23.0007 13.1884 22.4395 13.7971C21.8783 14.4058 21.456 15.129 21.2015 15.9169C20.947 16.7047 20.8665 17.5384 20.9656 18.3603V21.2615H19.3849C18.9816 21.2615 18.5948 21.4217 18.3096 21.7069C18.0245 21.9921 17.8643 22.3789 17.8643 22.7822V24.663C17.8643 25.0663 18.0245 25.453 18.3096 25.7382C18.5948 26.0234 18.9816 26.1836 19.3849 26.1836H20.9656V36.9281C20.9656 37.1934 21.071 37.4479 21.2586 37.6355C21.4462 37.8231 21.7006 37.9285 21.966 37.9285H25.5875C25.8423 37.9132 26.0816 37.8011 26.2564 37.6151C26.4312 37.4291 26.5283 37.1833 26.5279 36.9281V26.1836H28.2886C28.6919 26.1836 29.0787 26.0234 29.3639 25.7382C29.649 25.453 29.8093 25.0663 29.8093 24.663V22.7822C29.8093 22.3789 29.649 21.9921 29.3639 21.7069C29.0787 21.4217 28.6919 21.2615 28.2886 21.2615H26.5279V18.9206Z" stroke="#EEEDF0" stroke-width="2.2" stroke-linecap="round" stroke-linejoin="round"/>
</g>
</g>
<defs>
<filter id="filter0_f_25_45" x="-20" y="-20" width="90" height="90.2175" filterUnits="userSpaceOnUse" color-interpolation-filters="sRGB">
<feFlood flood-opacity="0" result="BackgroundImageFix"/>
<feBlend mode="normal" in="SourceGraphic" in2="BackgroundImageFix" result="shape"/>
<feGaussianBlur stdDeviation="10" result="effect1_foregroundBlur_25_45"/>
</filter>
<clipPath id="clip0_25_45">
<rect width="50" height="50" rx="25" fill="white"/>
</clipPath>
<clipPath id="clip1_25_45">
<rect width="30" height="30" fill="white" transform="translate(10 9)"/>
</clipPath>
</defs>
</svg>
