<svg width="50" height="50" viewBox="0 0 50 50" fill="none" xmlns="http://www.w3.org/2000/svg">
<g clip-path="url(#clip0_25_54)">
<path d="M50 0H0V50H50V0Z" fill="#6C72CB"/>
<g filter="url(#filter0_f_25_54)">
<path d="M21.1956 43.5954C28.0992 43.5954 33.6956 37.9128 33.6956 30.903C33.6956 23.8932 28.0992 18.2107 21.1956 18.2107C14.2921 18.2107 8.69562 23.8932 8.69562 30.903C8.69562 37.9128 14.2921 43.5954 21.1956 43.5954Z" fill="#CB69C1"/>
<path d="M37.5 25.3847C44.4036 25.3847 50 19.7021 50 12.6923C50 5.68255 44.4036 0 37.5 0C30.5964 0 25 5.68255 25 12.6923C25 19.7021 30.5964 25.3847 37.5 25.3847Z" fill="#6C72CB"/>
<path d="M25 50.2174C31.9036 50.2174 37.5 44.5349 37.5 37.5251C37.5 30.5153 31.9036 24.8328 25 24.8328C18.0964 24.8328 12.5 30.5153 12.5 37.5251C12.5 44.5349 18.0964 50.2174 25 50.2174Z" fill="#CB69C1"/>
<path d="M25 36.4213C31.9036 36.4213 37.5 30.7387 37.5 23.729C37.5 16.7192 31.9036 11.0366 25 11.0366C18.0964 11.0366 12.5 16.7192 12.5 23.729C12.5 30.7387 18.0964 36.4213 25 36.4213Z" fill="#CB69C1"/>
<path d="M21.1956 25.9367C28.0992 25.9367 33.6956 20.2541 33.6956 13.2443C33.6956 6.23456 28.0992 0.552002 21.1956 0.552002C14.2921 0.552002 8.69562 6.23456 8.69562 13.2443C8.69562 20.2541 14.2921 25.9367 21.1956 25.9367Z" fill="#6C72CB"/>
<path d="M12.5 39.7328C19.4036 39.7328 25 34.0503 25 27.0405C25 20.0307 19.4036 14.3481 12.5 14.3481C5.59644 14.3481 0 20.0307 0 27.0405C0 34.0503 5.59644 39.7328 12.5 39.7328Z" fill="#CB69C1"/>
</g>
<path d="M18.5714 30.143C17.0413 31.3448 15.285 32.2266 13.4071 32.7358C13.2003 32.8109 13.0216 32.9478 12.8953 33.128C12.769 33.3082 12.7013 33.5229 12.7013 33.743C12.7013 33.963 12.769 34.1777 12.8953 34.3579C13.0216 34.5381 13.2003 34.675 13.4071 34.7501C28.2357 40.8358 37.6643 31.4287 36.2286 20.993L38.6286 16.0215H35.8429C32.3714 11.7573 23.1571 11.9715 24.6786 21.0573C24.6786 21.0573 19.75 21.9358 13.45 15.743C13.3043 15.5991 13.1203 15.5 12.92 15.4574C12.7197 15.4148 12.5114 15.4305 12.3197 15.5027C12.1281 15.5748 11.9611 15.7004 11.8386 15.8645C11.7161 16.0286 11.6432 16.2244 11.6286 16.4287C10.9624 19.1669 11.2958 22.0531 12.5686 24.5673C13.8415 27.0816 15.9702 29.0588 18.5714 30.143V30.143Z" stroke="#EEEDF0" stroke-width="2.2" stroke-linecap="round" stroke-linejoin="round"/>
</g>
<defs>
<filter id="filter0_f_25_54" x="-20" y="-20" width="90" height="90.2175" filterUnits="userSpaceOnUse" color-interpolation-filters="sRGB">
<feFlood flood-opacity="0" result="BackgroundImageFix"/>
<feBlend mode="normal" in="SourceGraphic" in2="BackgroundImageFix" result="shape"/>
<feGaussianBlur stdDeviation="10" result="effect1_foregroundBlur_25_54"/>
</filter>
<clipPath id="clip0_25_54">
<rect width="50" height="50" rx="25" fill="white"/>
</clipPath>
</defs>
</svg>
