<svg width="50" height="50" viewBox="0 0 50 50" fill="none" xmlns="http://www.w3.org/2000/svg">
<g clip-path="url(#clip0_25_69)">
<path d="M50 0H0V50H50V0Z" fill="#6C72CB"/>
<g filter="url(#filter0_f_25_69)">
<path d="M21.1956 43.5954C28.0992 43.5954 33.6956 37.9128 33.6956 30.903C33.6956 23.8932 28.0992 18.2107 21.1956 18.2107C14.2921 18.2107 8.69562 23.8932 8.69562 30.903C8.69562 37.9128 14.2921 43.5954 21.1956 43.5954Z" fill="#CB69C1"/>
<path d="M37.5 25.3847C44.4036 25.3847 50 19.7021 50 12.6923C50 5.68255 44.4036 0 37.5 0C30.5964 0 25 5.68255 25 12.6923C25 19.7021 30.5964 25.3847 37.5 25.3847Z" fill="#6C72CB"/>
<path d="M25 50.2174C31.9036 50.2174 37.5 44.5349 37.5 37.5251C37.5 30.5153 31.9036 24.8328 25 24.8328C18.0964 24.8328 12.5 30.5153 12.5 37.5251C12.5 44.5349 18.0964 50.2174 25 50.2174Z" fill="#CB69C1"/>
<path d="M25 36.4213C31.9036 36.4213 37.5 30.7387 37.5 23.729C37.5 16.7192 31.9036 11.0366 25 11.0366C18.0964 11.0366 12.5 16.7192 12.5 23.729C12.5 30.7387 18.0964 36.4213 25 36.4213Z" fill="#CB69C1"/>
<path d="M21.1956 25.9367C28.0992 25.9367 33.6956 20.2541 33.6956 13.2443C33.6956 6.23456 28.0992 0.552002 21.1956 0.552002C14.2921 0.552002 8.69562 6.23456 8.69562 13.2443C8.69562 20.2541 14.2921 25.9367 21.1956 25.9367Z" fill="#6C72CB"/>
<path d="M12.5 39.7328C19.4036 39.7328 25 34.0503 25 27.0405C25 20.0307 19.4036 14.3481 12.5 14.3481C5.59644 14.3481 0 20.0307 0 27.0405C0 34.0503 5.59644 39.7328 12.5 39.7328Z" fill="#CB69C1"/>
</g>
<g clip-path="url(#clip1_25_69)">
<path d="M34.6428 13.2856H15.3571C12.9902 13.2856 11.0714 15.2044 11.0714 17.5714V30.4285C11.0714 32.7954 12.9902 34.7142 15.3571 34.7142H34.6428C37.0098 34.7142 38.9286 32.7954 38.9286 30.4285V17.5714C38.9286 15.2044 37.0098 13.2856 34.6428 13.2856Z" stroke="#EEEDF0" stroke-width="2.2" stroke-linecap="round" stroke-linejoin="round"/>
<path d="M21.3785 28.9714V19.9714C21.3741 19.8194 21.4111 19.6692 21.4857 19.5367C21.5603 19.4042 21.6696 19.2947 21.8019 19.2197C21.9341 19.1448 22.0843 19.1073 22.2363 19.1114C22.3882 19.1155 22.5362 19.1609 22.6642 19.2428L30.3785 23.7428C30.5074 23.8184 30.6143 23.9265 30.6886 24.0561C30.7628 24.1858 30.8019 24.3327 30.8019 24.4821C30.8019 24.6315 30.7628 24.7784 30.6886 24.9081C30.6143 25.0377 30.5074 25.1458 30.3785 25.2214L22.6642 29.7214C22.5334 29.797 22.3849 29.8366 22.2337 29.8362C22.0826 29.8359 21.9343 29.7956 21.8038 29.7195C21.6732 29.6433 21.5651 29.534 21.4905 29.4027C21.4158 29.2713 21.3772 29.1225 21.3785 28.9714Z" stroke="#EEEDF0" stroke-width="2" stroke-linecap="round" stroke-linejoin="round"/>
</g>
</g>
<defs>
<filter id="filter0_f_25_69" x="-20" y="-20" width="90" height="90.2175" filterUnits="userSpaceOnUse" color-interpolation-filters="sRGB">
<feFlood flood-opacity="0" result="BackgroundImageFix"/>
<feBlend mode="normal" in="SourceGraphic" in2="BackgroundImageFix" result="shape"/>
<feGaussianBlur stdDeviation="10" result="effect1_foregroundBlur_25_69"/>
</filter>
<clipPath id="clip0_25_69">
<rect width="50" height="50" rx="25" fill="white"/>
</clipPath>
<clipPath id="clip1_25_69">
<rect width="30" height="30" fill="white" transform="translate(10 9)"/>
</clipPath>
</defs>
</svg>
