<svg width="50" height="50" viewBox="0 0 50 50" fill="none" xmlns="http://www.w3.org/2000/svg">
<g clip-path="url(#clip0_25_91)">
<path d="M50 0H0V50H50V0Z" fill="#6C72CB"/>
<g filter="url(#filter0_f_25_91)">
<path d="M21.1956 43.5954C28.0991 43.5954 33.6956 37.9128 33.6956 30.903C33.6956 23.8932 28.0991 18.2107 21.1956 18.2107C14.292 18.2107 8.69556 23.8932 8.69556 30.903C8.69556 37.9128 14.292 43.5954 21.1956 43.5954Z" fill="#CB69C1"/>
<path d="M37.5 25.3847C44.4036 25.3847 50 19.7021 50 12.6923C50 5.68255 44.4036 0 37.5 0C30.5964 0 25 5.68255 25 12.6923C25 19.7021 30.5964 25.3847 37.5 25.3847Z" fill="#6C72CB"/>
<path d="M25 50.2174C31.9036 50.2174 37.5 44.5349 37.5 37.5251C37.5 30.5153 31.9036 24.8328 25 24.8328C18.0964 24.8328 12.5 30.5153 12.5 37.5251C12.5 44.5349 18.0964 50.2174 25 50.2174Z" fill="#CB69C1"/>
<path d="M25 36.4213C31.9036 36.4213 37.5 30.7387 37.5 23.729C37.5 16.7192 31.9036 11.0366 25 11.0366C18.0964 11.0366 12.5 16.7192 12.5 23.729C12.5 30.7387 18.0964 36.4213 25 36.4213Z" fill="#CB69C1"/>
<path d="M21.1956 25.9367C28.0991 25.9367 33.6956 20.2541 33.6956 13.2443C33.6956 6.23456 28.0991 0.552002 21.1956 0.552002C14.292 0.552002 8.69556 6.23456 8.69556 13.2443C8.69556 20.2541 14.292 25.9367 21.1956 25.9367Z" fill="#6C72CB"/>
<path d="M12.5 39.7328C19.4036 39.7328 25 34.0503 25 27.0405C25 20.0307 19.4036 14.3481 12.5 14.3481C5.59644 14.3481 0 20.0307 0 27.0405C0 34.0503 5.59644 39.7328 12.5 39.7328Z" fill="#CB69C1"/>
</g>
<g clip-path="url(#clip1_25_91)">
<path fill-rule="evenodd" clip-rule="evenodd" d="M37.5611 25C37.5611 28.3936 37.5464 28.8184 37.4877 30.1514C37.429 31.4795 37.2138 32.3877 36.9055 33.1836C36.2548 34.8633 34.9241 36.1914 33.2411 36.8408C32.4486 37.1484 31.5337 37.3633 30.203 37.4219C28.8674 37.4805 28.4417 37.4951 25.0415 37.4951C21.6413 37.4951 21.2157 37.4805 19.8801 37.4219C18.5494 37.3633 17.6394 37.1484 16.8419 36.8408C16.0102 36.5283 15.2519 36.0352 14.6257 35.4004C13.9897 34.7754 13.4956 34.0234 13.1775 33.1836C12.8693 32.3926 12.6541 31.4795 12.5954 30.1514C12.5366 28.8184 12.522 28.3936 12.522 25C12.522 21.6064 12.5366 21.1816 12.6003 19.8437C12.659 18.5156 12.8742 17.6074 13.1824 16.8115C13.4956 15.9814 13.9897 15.2246 14.6257 14.5996C15.2519 13.96 16.0053 13.4717 16.8468 13.1543C17.6394 12.8467 18.5543 12.6318 19.885 12.5732C21.2206 12.5146 21.6462 12.5 25.0464 12.5C28.4466 12.5 28.8723 12.5146 30.2128 12.5781C31.5435 12.6367 32.4535 12.8516 33.2509 13.1592C34.0826 13.4717 34.841 13.9648 35.4672 14.5996C36.1081 15.2246 36.5973 15.9766 36.9153 16.8164C37.2235 17.6074 37.4388 18.5205 37.4975 19.8486C37.5562 21.1816 37.5611 21.6064 37.5611 25ZM35.3155 25.0098C35.3155 21.6748 35.3008 21.2793 35.2421 19.9609C35.1883 18.7451 34.9828 18.0811 34.8116 17.6416C34.611 17.0996 34.293 16.6113 33.8772 16.2061C33.476 15.791 32.9819 15.4736 32.4388 15.2734C31.9985 15.1025 31.338 14.8975 30.1149 14.8438C28.7989 14.7852 28.4026 14.7705 25.0562 14.7705C21.7147 14.7705 21.3184 14.7852 19.9975 14.8438C18.7793 14.8975 18.1139 15.1025 17.6736 15.2734C17.1306 15.4736 16.6413 15.791 16.2353 16.2061C15.8145 16.6064 15.4965 17.0996 15.2959 17.6416C15.1247 18.0811 14.9192 18.7402 14.8654 19.9609C14.8067 21.2744 14.792 21.6748 14.792 25.0098C14.792 28.3447 14.8067 28.7402 14.8654 30.0586C14.9192 31.2744 15.1247 31.9385 15.2959 32.3779C15.4965 32.9199 15.8145 33.4082 16.2304 33.8135C16.6316 34.2285 17.1257 34.5459 17.6687 34.7461C18.1091 34.917 18.7695 35.1221 19.9926 35.1758C21.3087 35.2344 21.7098 35.249 25.0513 35.249C28.3928 35.249 28.7891 35.2344 30.11 35.1758C31.3282 35.1221 31.9936 34.917 32.4339 34.7461C33.5249 34.3262 34.3909 33.4619 34.8116 32.373C34.9828 31.9336 35.1883 31.2744 35.2421 30.0537C35.3008 28.7354 35.3155 28.3447 35.3155 25.0098Z" fill="#EEEDF0"/>
<path fill-rule="evenodd" clip-rule="evenodd" d="M31.4798 25C31.4798 28.5449 28.5982 31.4209 25.0464 31.4209C21.4945 31.4209 18.6129 28.5449 18.6129 25C18.6129 21.4551 21.4945 18.5791 25.0464 18.5791C28.5982 18.5791 31.4798 21.4551 31.4798 25ZM25.0464 29.165C27.3507 29.165 29.2196 27.2998 29.2196 25C29.2196 22.7002 27.3507 20.835 25.0464 20.835C22.7421 20.835 20.8732 22.7002 20.8732 25C20.8732 27.2998 22.7421 29.165 25.0464 29.165Z" fill="#EEEDF0"/>
<path d="M33.2363 18.3252C33.2363 19.1528 32.5641 19.8242 31.7344 19.8242C30.9051 19.8242 30.2324 19.1528 30.2324 18.3252C30.2324 17.4971 30.9051 16.8262 31.7344 16.8262C32.5641 16.8262 33.2363 17.4971 33.2363 18.3252Z" fill="#EEEDF0"/>
</g>
</g>
<defs>
<filter id="filter0_f_25_91" x="-20" y="-20" width="90" height="90.2175" filterUnits="userSpaceOnUse" color-interpolation-filters="sRGB">
<feFlood flood-opacity="0" result="BackgroundImageFix"/>
<feBlend mode="normal" in="SourceGraphic" in2="BackgroundImageFix" result="shape"/>
<feGaussianBlur stdDeviation="10" result="effect1_foregroundBlur_25_91"/>
</filter>
<clipPath id="clip0_25_91">
<rect width="50" height="50" rx="25" fill="white"/>
</clipPath>
<clipPath id="clip1_25_91">
<rect width="25" height="25" fill="white" transform="translate(12.5 12.5)"/>
</clipPath>
</defs>
</svg>
